TITLE ""
FILE "DISC2Track25.mp3" MP3
  TRACK 01 AUDIO
    TITLE "DISC2Track25_01"
    INDEX 01 00:00:00
  TRACK 02 AUDIO
    TITLE "DISC2Track25_02"
    INDEX 01 00:05:11
  TRACK 03 AUDIO
    TITLE "DISC2Track25_03"
    INDEX 01 00:05:37
  TRACK 04 AUDIO
    TITLE "DISC2Track25_04"
    INDEX 01 00:08:27
  TRACK 05 AUDIO
    TITLE "DISC2Track25_05"
    INDEX 01 00:10:46
  TRACK 06 AUDIO
    TITLE "DISC2Track25_06"
    INDEX 01 00:12:55
  TRACK 07 AUDIO
    TITLE "DISC2Track25_07"
    INDEX 01 00:13:05
  TRACK 08 AUDIO
    TITLE "DISC2Track25_08"
    INDEX 01 00:15:71
  TRACK 09 AUDIO
    TITLE "DISC2Track25_09"
    INDEX 01 00:18:16
  TRACK 10 AUDIO
    TITLE "DISC2Track25_10"
    INDEX 01 00:20:25
  TRACK 11 AUDIO
    TITLE "DISC2Track25_11"
    INDEX 01 00:20:48
  TRACK 12 AUDIO
    TITLE "DISC2Track25_12"
    INDEX 01 00:24:60
  TRACK 13 AUDIO
    TITLE "DISC2Track25_13"
    INDEX 01 00:27:37
  TRACK 14 AUDIO
    TITLE "DISC2Track25_14"
    INDEX 01 00:30:15
  TRACK 15 AUDIO
    TITLE "DISC2Track25_15"
    INDEX 01 00:30:39
  TRACK 16 AUDIO
    TITLE "DISC2Track25_16"
    INDEX 01 00:33:41
  TRACK 17 AUDIO
    TITLE "DISC2Track25_17"
    INDEX 01 00:35:65
  TRACK 18 AUDIO
    TITLE "DISC2Track25_18"
    INDEX 01 00:38:15
  TRACK 19 AUDIO
    TITLE "DISC2Track25_19"
    INDEX 01 00:38:38
  TRACK 20 AUDIO
    TITLE "DISC2Track25_20"
    INDEX 01 00:41:68
  TRACK 21 AUDIO
    TITLE "DISC2Track25_21"
    INDEX 01 00:44:60
  TRACK 22 AUDIO
    TITLE "DISC2Track25_22"
    INDEX 01 00:47:51
  TRACK 23 AUDIO
    TITLE "DISC2Track25_23"
    INDEX 01 00:47:75
  TRACK 24 AUDIO
    TITLE "DISC2Track25_24"
    INDEX 01 00:51:29
  TRACK 25 AUDIO
    TITLE "DISC2Track25_25"
    INDEX 01 00:54:20
  TRACK 26 AUDIO
    TITLE "DISC2Track25_26"
    INDEX 01 00:57:16
  TRACK 27 AUDIO
    TITLE "DISC2Track25_27"
    INDEX 01 00:57:36
  TRACK 28 AUDIO
    TITLE "DISC2Track25_28"
    INDEX 01 01:00:75
  TRACK 29 AUDIO
    TITLE "DISC2Track25_29"
    INDEX 01 01:03:44
  TRACK 30 AUDIO
    TITLE "DISC2Track25_30"
    INDEX 01 01:06:07
  TRACK 31 AUDIO
    TITLE "DISC2Track25_31"
    INDEX 01 01:06:33
  TRACK 32 AUDIO
    TITLE "DISC2Track25_32"
    INDEX 01 01:10:27
  TRACK 33 AUDIO
    TITLE "DISC2Track25_33"
    INDEX 01 01:13:15
  TRACK 34 AUDIO
    TITLE "DISC2Track25_34"
    INDEX 01 01:15:69
  TRACK 35 AUDIO
    TITLE "DISC2Track25_35"
    INDEX 01 01:16:19
  TRACK 36 AUDIO
    TITLE "DISC2Track25_36"
    INDEX 01 01:20:15
  TRACK 37 AUDIO
    TITLE "DISC2Track25_37"
    INDEX 01 01:23:08
  TRACK 38 AUDIO
    TITLE "DISC2Track25_38"
    INDEX 01 01:25:73
  TRACK 39 AUDIO
    TITLE "DISC2Track25_39"
    INDEX 01 01:26:24
  TRACK 40 AUDIO
    TITLE "DISC2Track25_40"
    INDEX 01 01:29:14
  TRACK 41 AUDIO
    TITLE "DISC2Track25_41"
    INDEX 01 01:31:19
  TRACK 42 AUDIO
    TITLE "DISC2Track25_42"
    INDEX 01 01:33:16
